<?xml version="1.0" encoding="UTF-8"?>
<svg width="200px" height="200px" viewBox="0 0 200 200" version="1.1" xmlns="http://www.w3.org/2000/svg" xmlns:xlink="http://www.w3.org/1999/xlink">
    <!-- Generator: Sketch 53.2 (72643) - https://sketchapp.com -->
    <title>enterprise</title>
    <desc>Created with Sketch.</desc>
    <g id="Page-1" stroke="none" stroke-width="1" fill="none" fill-rule="evenodd">
        <g id="enterprise" fill="#FFFFFF" fill-rule="nonzero">
            <rect id="Rectangle" x="69.7247706" y="66.5105386" width="6.72782875" height="6.55737705"></rect>
            <rect id="Rectangle" x="69.7247706" y="80.0936768" width="6.72782875" height="6.55737705"></rect>
            <rect id="Rectangle" x="69.7247706" y="93.2084309" width="6.72782875" height="6.55737705"></rect>
            <rect id="Rectangle" x="69.7247706" y="106.791569" width="6.72782875" height="6.55737705"></rect>
            <rect id="Rectangle" x="83.1804281" y="66.5105386" width="6.72782875" height="6.55737705"></rect>
            <rect id="Rectangle" x="83.1804281" y="80.0936768" width="6.72782875" height="6.55737705"></rect>
            <rect id="Rectangle" x="83.1804281" y="93.2084309" width="6.72782875" height="6.55737705"></rect>
            <rect id="Rectangle" x="83.1804281" y="106.791569" width="6.72782875" height="6.55737705"></rect>
            <rect id="Rectangle" x="96.6360856" y="66.5105386" width="6.72782875" height="6.55737705"></rect>
            <rect id="Rectangle" x="96.6360856" y="80.0936768" width="6.72782875" height="6.55737705"></rect>
            <rect id="Rectangle" x="96.6360856" y="93.2084309" width="6.72782875" height="6.55737705"></rect>
            <rect id="Rectangle" x="96.6360856" y="106.791569" width="6.72782875" height="6.55737705"></rect>
            <rect id="Rectangle" x="110.091743" y="66.5105386" width="6.72782875" height="6.55737705"></rect>
            <rect id="Rectangle" x="83.1804281" y="53.3957845" width="6.72782875" height="6.55737705"></rect>
            <rect id="Rectangle" x="96.6360856" y="53.3957845" width="6.72782875" height="6.55737705"></rect>
            <rect id="Rectangle" x="110.091743" y="53.3957845" width="6.72782875" height="6.55737705"></rect>
            <rect id="Rectangle" x="110.091743" y="80.0936768" width="6.72782875" height="6.55737705"></rect>
            <rect id="Rectangle" x="110.091743" y="93.2084309" width="6.72782875" height="6.55737705"></rect>
            <rect id="Rectangle" x="110.091743" y="106.791569" width="6.72782875" height="6.55737705"></rect>
            <rect id="Rectangle" x="123.547401" y="66.5105386" width="6.72782875" height="6.55737705"></rect>
            <rect id="Rectangle" x="123.547401" y="80.0936768" width="6.72782875" height="6.55737705"></rect>
            <rect id="Rectangle" x="123.547401" y="93.2084309" width="6.72782875" height="6.55737705"></rect>
            <rect id="Rectangle" x="123.547401" y="106.791569" width="6.72782875" height="6.55737705"></rect>
            <path d="M196.670416,50.0000004 C196.669166,50.0000004 196.667916,50.0000004 196.666666,50.0000004 L146.666666,50.0000004 L146.666666,3.33333409 C146.667916,1.49333411 145.177083,0.00125078547 143.337083,7.85479152e-07 C143.335833,7.85479152e-07 143.334583,7.85479152e-07 143.333333,7.85479152e-07 L56.666667,7.85479152e-07 C54.826667,-0.00124921451 53.3345837,1.48958411 53.3333337,3.32958409 C53.3333337,3.33083409 53.3333337,3.33208409 53.3333337,3.33333409 L53.3333337,50.0000004 L3.33333409,50.0000004 C1.49333411,49.9987504 0.00125078547,51.4895837 7.85479152e-07,53.3295837 C7.85479152e-07,53.3308337 7.85479152e-07,53.3320837 7.85479152e-07,53.3333337 L7.85479152e-07,173.333333 C-0.00124921451,175.173333 1.48958411,176.665416 3.32958409,176.666666 C3.33083409,176.666666 3.33208409,176.666666 3.33333409,176.666666 L10.3012507,176.666666 C10.1079174,177.767499 10.007084,178.882499 10.0000007,179.999999 L10.0000007,196.666666 C9.99875071,198.506666 11.489584,199.998749 13.329584,199.999999 C13.330834,199.999999 13.332084,199.999999 13.333334,199.999999 L186.666666,199.999999 C188.506666,200.001249 189.998749,198.510416 189.999999,196.670416 C189.999999,196.669166 189.999999,196.667916 189.999999,196.666666 L189.999999,179.999999 C189.993333,178.882499 189.892499,177.767499 189.698749,176.666666 L196.666666,176.666666 C198.506666,176.667916 199.998749,175.177083 199.999999,173.337083 C199.999999,173.335833 199.999999,173.334583 199.999999,173.333333 L199.999999,53.3333337 C200.001249,51.4933337 198.510416,50.0012504 196.670416,50.0000004 Z M143.333333,143.333333 C143.333333,147.015416 140.34875,150 136.666666,150 C132.984583,150 130,147.015416 130,143.333333 C130,139.65125 132.984583,136.666666 136.666666,136.666666 C140.346666,136.67125 143.32875,139.653333 143.333333,143.333333 Z M63.3333336,136.666666 C67.0154169,136.666666 70.0000002,139.65125 70.0000002,143.333333 C70.0000002,147.015416 67.0154169,150 63.3333336,150 C59.6512503,150 56.666667,147.015416 56.666667,143.333333 C56.6712503,139.653333 59.6533337,136.67125 63.3333336,136.666666 Z M43.3333338,193.333333 L16.6666673,193.333333 L16.6666673,179.999999 C16.6666673,172.636249 22.6362506,166.666666 30.0000005,166.666666 C37.3637505,166.666666 43.3333338,172.636249 43.3333338,179.999999 L43.3333338,193.333333 Z M23.3333339,153.333333 C23.3333339,149.65125 26.3179172,146.666666 30.0000005,146.666666 C33.6820839,146.666666 36.6666672,149.65125 36.6666672,153.333333 C36.6666672,157.015416 33.6820839,160 30.0000005,160 C26.3200006,159.995416 23.3379173,157.013333 23.3333339,153.333333 Z M43.8383338,165.593749 C42.5812505,164.381249 41.1716671,163.337916 39.6450005,162.49 C44.7291671,157.163333 44.5329171,148.723333 39.2062505,143.63875 C33.8795839,138.554166 25.4395839,138.750833 20.3550006,144.0775 C15.437084,149.229583 15.437084,157.3375 20.3550006,162.489583 C17.173334,164.255416 14.5300007,166.850833 12.705834,169.999583 L6.6666674,169.999583 L6.6666674,56.666667 L53.3333337,56.666667 L53.3333337,134.606666 C48.7558337,139.742916 48.9104171,147.539583 53.6883337,152.49 C48.6883337,155.255416 45.1054171,160.022083 43.8383338,165.593749 Z M76.6666668,193.333333 L50.0000004,193.333333 L50.0000004,169.999999 C50.0000004,162.63625 55.9695837,156.666666 63.3333336,156.666666 C70.6970836,156.666666 76.6666668,162.63625 76.6666668,169.999999 L76.6666668,193.333333 Z M116.666667,193.333333 L83.3333335,193.333333 L83.3333335,169.999999 C83.3333335,160.795416 90.7954167,153.333333 100,153.333333 C109.204583,153.333333 116.666667,160.795416 116.666667,169.999999 L116.666667,193.333333 Z M90.0000001,136.666666 C90.0000001,131.14375 94.4770834,126.666666 100,126.666666 C105.522917,126.666666 110,131.14375 110,136.666666 C110,142.189583 105.522917,146.666666 100,146.666666 C94.4795834,146.660833 90.0058334,142.187083 90.0000001,136.666666 Z M120.300833,158.539583 C118.06875,154.604583 114.747917,151.398333 110.737083,149.30625 C117.7775,143.37625 118.6775,132.861666 112.747917,125.82125 C106.817917,118.780833 96.3033334,117.880833 89.2629168,123.810416 C82.2225001,129.740416 81.3225001,140.255 87.2520834,147.295416 C87.8637501,148.021666 88.5362501,148.694166 89.2629168,149.30625 C85.2520834,151.398333 81.9312501,154.604583 79.6991668,158.539583 C77.9466668,156.039583 75.6483335,153.970833 72.9783335,152.49 C78.0887502,147.262083 77.9937502,138.880833 72.7654169,133.770416 C69.3991669,130.479583 64.5387503,129.224583 60.0000003,130.473333 L60.0000003,6.6666674 L140,6.6666674 L140,130.473333 C138.91375,130.17375 137.793333,130.014583 136.666666,130 C129.3225,129.980416 123.352916,135.918333 123.333333,143.262916 C123.324166,146.699583 124.64625,150.006666 127.021666,152.49 C124.351666,153.970833 122.053333,156.039583 120.300833,158.539583 Z M150,179.999999 L150,193.333333 L123.333333,193.333333 L123.333333,169.999999 C123.333333,162.63625 129.302916,156.666666 136.666666,156.666666 C144.030416,156.666666 150,162.63625 150,169.999999 L150,179.999999 Z M183.333333,193.333333 L156.666666,193.333333 L156.666666,179.999999 C156.666666,172.636249 162.63625,166.666666 169.999999,166.666666 C177.363749,166.666666 183.333333,172.636249 183.333333,179.999999 L183.333333,193.333333 Z M163.333333,153.333333 C163.333333,149.65125 166.317916,146.666666 169.999999,146.666666 C173.682083,146.666666 176.666666,149.65125 176.666666,153.333333 C176.666666,157.015416 173.682083,160 169.999999,160 C166.319999,159.995416 163.337916,157.013333 163.333333,153.333333 Z M193.333749,169.999999 L187.294166,169.999999 C185.469999,166.851249 182.826666,164.255833 179.644999,162.49 C184.729166,157.163333 184.532916,148.723333 179.206249,143.63875 C173.879583,138.554583 165.439583,138.750833 160.355,144.0775 C155.437083,149.229583 155.437083,157.3375 160.355,162.489583 C158.828333,163.3375 157.418333,164.380833 156.161666,165.593333 C154.895,160.021666 151.311666,155.255 146.311666,152.489583 C151.089583,147.539166 151.244583,139.7425 146.667083,134.60625 L146.667083,56.666667 L193.333749,56.666667 L193.333749,169.999999 L193.333749,169.999999 Z" id="Shape"></path>
            <rect id="Rectangle" x="156.574924" y="76.8149883" width="6.72782875" height="53.3957845"></rect>
            <rect id="Rectangle" x="176.75841" y="76.8149883" width="6.72782875" height="53.3957845"></rect>
            <rect id="Rectangle" x="16.5137615" y="76.8149883" width="6.72782875" height="53.3957845"></rect>
            <rect id="Rectangle" x="36.6972477" y="76.8149883" width="6.72782875" height="53.3957845"></rect>
            <path d="M120.230908,13.583139 C120.229663,13.583139 120.228418,13.583139 120.227173,13.583139 L80.384448,13.583139 C78.5516827,13.5818919 77.0654661,15.0692337 77.064221,16.9049245 C77.064221,16.9061716 77.064221,16.9074187 77.064221,16.9086657 L77.064221,43.5128799 C77.0629759,45.3485707 78.5479474,46.8371596 80.3807128,46.8384067 C80.3819579,46.8384067 80.3832029,46.8384067 80.384448,46.8384067 L120.227173,46.8384067 C122.059938,46.8396538 123.546155,45.3523119 123.5474,43.5166212 C123.5474,43.5153741 123.5474,43.514127 123.5474,43.5128799 L123.5474,16.9086657 C123.548645,15.072975 122.063673,13.584386 120.230908,13.583139 Z M116.906946,40.1873532 L83.7046751,40.1873532 L83.7046751,20.2341925 L116.906946,20.2341925 L116.906946,40.1873532 Z" id="Shape"></path>
        </g>
    </g>
</svg>