<?xml version="1.0" encoding="UTF-8"?>
<svg width="346px" height="512px" viewBox="0 0 346 512" version="1.1" xmlns="http://www.w3.org/2000/svg" xmlns:xlink="http://www.w3.org/1999/xlink">
    <!-- Generator: Sketch 53.2 (72643) - https://sketchapp.com -->
    <title>employee</title>
    <desc>Created with Sketch.</desc>
    <g id="Page-1" stroke="none" stroke-width="1" fill="none" fill-rule="evenodd">
        <g id="employee" fill="#FFFFFF" fill-rule="nonzero">
            <path d="M338.054,414.843 C333.912,414.843 330.554,418.201 330.554,422.343 L330.554,492.857 C330.554,495.14 328.696,496.998 326.413,496.998 L286.096,496.998 L286.096,349.301 C286.096,345.159 282.738,341.801 278.596,341.801 C274.454,341.801 271.096,345.159 271.096,349.301 L271.096,496.999 L189.911,496.999 L213.454,471.099 C216.026,468.269 217.239,464.238 216.698,460.312 C216.688,460.236 216.676,460.16 216.663,460.084 L194.24,327.617 L200.281,318.523 C203.621,320.895 206.194,323.179 211.019,323.179 C215.927,323.179 220.516,320.432 222.774,315.91 L222.774,315.909 L246.424,268.509 L300.3,289.374 C302.249,290.21 330.552,302.956 330.552,336.612 L330.552,387.342 C330.551,391.483 333.909,394.842 338.052,394.842 C342.194,394.842 345.552,391.484 345.552,387.342 L345.552,336.612 C345.552,292.268 307.583,276.149 305.967,275.484 C305.92,275.464 305.872,275.445 305.824,275.427 L216.156,240.701 L216.156,219.671 C230.398,208.595 240.273,192.176 242.752,173.444 C249.853,172.944 256.442,170.292 261.823,165.665 C268.85,159.622 272.882,150.827 272.882,141.539 C272.882,133.831 270.101,126.471 265.145,120.736 L265.145,92.953 C265.144,41.699 223.446,0 172.192,0 C120.938,0 79.24,41.699 79.24,92.953 L79.24,121.464 C74.231,127.141 71.507,134.129 71.507,141.538 C71.507,150.829 75.537,159.623 82.566,165.667 C87.943,170.292 94.528,172.941 101.627,173.442 C104.126,192.525 114.289,209.556 129.744,220.781 L129.744,240.701 L40.173,275.426 C40.126,275.444 40.079,275.463 40.032,275.482 C38.415,276.147 0.447,292.266 0.447,336.61 L0.447,492.855 C0.447,503.41 9.034,511.997 19.589,511.997 L91.046,511.997 C95.188,511.997 98.546,508.639 98.546,504.497 C98.546,500.355 95.188,496.997 91.046,496.997 L74.909,496.997 L74.909,349.301 C74.909,345.159 71.551,341.801 67.409,341.801 C63.267,341.801 59.909,345.159 59.909,349.301 L59.909,496.999 L19.59,496.999 C17.307,496.999 15.449,495.141 15.449,492.858 L15.449,336.611 C15.449,302.842 43.942,290.125 45.692,289.377 L99.526,268.507 L123.178,315.909 C125.441,320.442 130.036,323.179 134.934,323.179 C139.735,323.179 142.283,320.93 145.672,318.523 L151.713,327.617 L129.292,460.085 C129.279,460.16 129.268,460.235 129.257,460.311 C128.715,464.235 129.928,468.268 132.501,471.1 L156.044,497 L126.049,497 C121.907,497 118.549,500.358 118.549,504.5 C118.549,508.642 121.907,512 126.049,512 L326.414,512 C336.969,512 345.556,503.412 345.556,492.858 L345.556,422.344 C345.554,418.201 342.196,414.843 338.054,414.843 Z M232.375,263.069 L210.326,307.259 C209.778,306.87 198.093,298.568 183.809,288.425 C190.007,280.774 182.756,289.724 211.044,254.808 L232.375,263.069 Z M188.043,309.833 L182.325,318.44 L163.622,318.44 L157.904,309.833 L172.974,299.13 L188.043,309.833 Z M144.743,243.121 L144.743,229.085 C153.855,232.758 163.593,234.461 173.103,234.461 C182.936,234.461 192.579,232.365 201.155,228.615 L201.155,243.182 L172.974,277.967 L144.743,243.121 Z M257.881,141.539 C257.88,146.452 255.752,151.101 252.042,154.292 C249.589,156.402 246.626,157.751 243.381,158.279 L243.381,124.802 C252.001,126.202 257.881,133.352 257.881,141.539 Z M101.007,158.279 C92.289,156.864 86.507,149.656 86.507,141.538 C86.507,133.52 93.154,126.994 101.007,125.179 L101.007,158.279 Z M101.41,109.896 C99.021,110.17 96.283,110.817 94.242,111.511 L94.242,92.953 C94.242,49.97 129.21,15.001 172.193,15.001 C215.176,15.001 250.144,49.97 250.144,92.953 L250.144,110.996 C247.964,110.333 245.703,109.895 243.382,109.689 C243.382,102.452 243.445,103.848 219.77,78.395 C215.416,73.717 208.214,72.737 202.733,76.318 C176.603,93.387 144.728,101.962 115.318,99.85 C108.867,99.367 102.991,103.616 101.41,109.896 Z M116.008,164.184 L116.008,117.392 L116.008,114.927 C148.383,116.823 182.326,107.205 209.747,89.644 C220.605,101.302 226.485,107.417 228.381,109.743 C228.381,115.627 228.381,157.448 228.381,164.183 C228.381,194.63 203.555,219.459 173.104,219.459 C138.91,219.46 116.008,192.934 116.008,164.184 Z M135.623,307.259 L113.574,263.069 L134.867,254.822 L162.108,288.447 C148.255,298.284 136.88,306.366 135.623,307.259 Z M144.228,461.702 L165.937,333.439 L180.008,333.439 L201.717,461.702 L172.973,493.325 L144.228,461.702 Z" id="Shape"></path>
        </g>
    </g>
</svg>