<svg xmlns="http://www.w3.org/2000/svg" viewBox="0 0 90 90">
  <defs>
    <style>
      .cls-1 {
        fill: #fff;
      }
    </style>
  </defs>
  <path id="facebook" class="cls-1" d="M13.184,90H42.539V58.008H31.992V47.461H42.539V34.277A13.2,13.2,0,0,1,55.723,21.094H68.906V31.641H58.359a5.279,5.279,0,0,0-5.273,5.273V47.461H68.43L66.673,58.008H53.086V90h23.73A13.2,13.2,0,0,0,90,76.816V13.184A13.2,13.2,0,0,0,76.816,0H13.184A13.2,13.2,0,0,0,0,13.184V76.816A13.2,13.2,0,0,0,13.184,90ZM5.273,13.184a7.919,7.919,0,0,1,7.91-7.91H76.816a7.919,7.919,0,0,1,7.91,7.91V76.816a7.919,7.919,0,0,1-7.91,7.91H58.359V63.281H71.14l3.516-21.094h-16.3V36.914H74.18V15.82H55.723A18.478,18.478,0,0,0,37.266,34.277v7.91H26.719V63.281H37.266V84.727H13.184a7.919,7.919,0,0,1-7.91-7.91Zm0,0"/>
</svg>
