<?xml version="1.0" encoding="UTF-8"?>
<svg width="512px" height="512px" viewBox="0 0 512 512" version="1.1" xmlns="http://www.w3.org/2000/svg" xmlns:xlink="http://www.w3.org/1999/xlink">
    <!-- Generator: Sketch 53.2 (72643) - https://sketchapp.com -->
    <title>skype</title>
    <desc>Created with Sketch.</desc>
    <g id="Page-1" stroke="none" stroke-width="1" fill="none" fill-rule="evenodd">
        <g id="skype" fill="#FFFFFF" fill-rule="nonzero">
            <path d="M361.472656,512 C339.019531,512 316.777344,507.023438 296.710938,497.558594 C282.441406,499.898438 270.167969,501 258.519531,501 C123.140625,501 13,392.191406 13,258.449219 C13,245.425781 14.292969,231.875 16.9375,217.234375 C5.835938,196.152344 -8.52651283e-14,172.621094 -8.52651283e-14,148.699219 C-8.52651283e-14,66.707031 67.539062,-2.84217094e-14 150.558594,-2.84217094e-14 C176.394531,-2.84217094e-14 201.636719,6.523438 224.027344,18.929688 C234.226562,17.617188 245.386719,17 258.519531,17 C323.9375,17 385.347656,42.050781 431.4375,87.53125 C477.585938,133.074219 503,193.777344 503,258.457031 C503,275.59375 501.832031,290.128906 499.351562,303.570312 C507.75,322.332031 512,342.390625 512,363.300781 C512,445.292969 444.472656,512 361.472656,512 L361.472656,512 Z M303.027344,455.804688 L309.171875,459.070312 C325.070312,467.527344 343.15625,472 361.472656,472 C422.417969,472 472,423.238281 472,363.300781 C472,346.304688 468.160156,330.113281 460.582031,315.175781 L457.332031,308.761719 L458.90625,301.746094 C461.699219,289.308594 463,275.554688 463,258.457031 C463,147.375 371.269531,57 258.519531,57 C244.441406,57 233.261719,57.78125 223.328125,59.464844 L215.863281,60.726562 L209.433594,56.730469 C191.824219,45.785156 171.464844,40 150.558594,40 C89.597656,40 40,88.761719 40,148.699219 C40,168.035156 45.234375,187.015625 55.136719,203.589844 L59.125,210.269531 L57.554688,217.890625 C54.488281,232.730469 53,245.996094 53,258.449219 C53,370.136719 145.195312,461 258.519531,461 C269.46875,461 281.4375,459.746094 296.1875,457.054688 L303.027344,455.804688 Z M385,310.863281 C385,296.480469 382.160156,284.113281 376.496094,274.105469 C370.832031,264.140625 362.867188,255.796875 352.847656,249.285156 C342.996094,242.910156 330.90625,237.449219 316.941406,232.980469 C303.136719,228.601562 287.527344,224.570312 270.546875,220.941406 C257.109375,217.855469 247.332031,215.453125 241.503906,213.855469 C235.808594,212.296875 230.144531,210.085938 224.621094,207.34375 C219.296875,204.699219 215.105469,201.515625 212.089844,197.921875 C209.277344,194.492188 207,190.53125 207,185.78125 C207,178.019531 212.164062,171.480469 220.933594,165.78125 C230.007812,159.851562 242.234375,157.398438 257.273438,157.398438 C273.449219,157.398438 285.273438,159.582031 292.3125,164.902344 C299.582031,170.363281 305.914062,178.160156 311.136719,188.0625 C315.664062,195.796875 319.742188,201.191406 323.667969,204.644531 C327.890625,208.339844 333.988281,210 341.757812,210 C350.300781,210 357.570312,207.222656 363.296875,201.289062 C369.023438,195.386719 373,188.605469 373,181.152344 C373,173.421875 369.695312,165.421875 365.339844,157.382812 C361.015625,149.410156 354.1875,141.753906 344.941406,134.566406 C335.792969,127.441406 324.109375,121.679688 310.304688,117.410156 C296.539062,113.132812 280.050781,111 261.300781,111 C237.882812,111 217.152344,114.214844 199.765625,120.625 C182.113281,127.101562 168.382812,136.597656 159.035156,148.734375 C149.558594,160.96875 144,175.175781 144,190.945312 C144,207.492188 149.320312,221.523438 158.328125,232.746094 C167.210938,243.769531 179.324219,252.582031 194.402344,258.957031 C209.105469,265.164062 227.589844,270.652344 249.367188,275.296875 C265.378906,278.660156 278.335938,281.847656 287.886719,284.796875 C296.996094,287.613281 304.566406,291.75 310.296875,297.070312 C315.722656,302.125 318.695312,308.601562 318.695312,316.839844 C318.695312,327.253906 313.273438,335.796875 302.824219,342.882812 C292.140625,350.136719 277.933594,353 260.585938,353 C247.953125,353 237.707031,352.003906 230.101562,348.40625 C222.53125,344.878906 216.601562,340.296875 212.511719,334.910156 C208.195312,329.246094 204.144531,322.136719 200.425781,313.652344 C197.105469,305.894531 192.992188,299.851562 188.132812,295.789062 C183.074219,291.546875 176.851562,289 169.648438,289 C160.878906,289 153.507812,292.121094 147.742188,297.480469 C141.949219,302.902344 139,309.542969 139,317.175781 C139,329.414062 143.519531,342.097656 152.464844,354.847656 C161.242188,367.492188 172.894531,377.765625 186.996094,385.332031 C206.691406,395.742188 231.980469,401 262.125,401 C287.210938,401 309.289062,397.136719 327.671875,389.546875 C346.261719,381.886719 360.59375,371.070312 370.308594,357.40625 C380.058594,343.707031 384.980469,328.046875 385,310.863281 Z" id="Shape"></path>
        </g>
    </g>
</svg>